# xmcd
#
# Track frame offsets:
#	150
#	13747
#	32240
#	51415
#	65632
#	86694
#	100646
#	113334
#	126207
#	140645
#	155587
#	176034
#	192102
#	204322
#	219228
#	241458
#	254506
#	268375
#	282028
#	293416
#
# Disc length: 4166 seconds
#
# Revision: 0
# Processed by: cddbd v1.5.2PL0 Copyright (c) Steve Scherf et al.
# Submitted via: EasyCDDAExtractor 16.0.6.1
#
DISCID=29104414
DTITLE=Συλλογικός δίσκος - Όλα τα ρεμπέτικα 03
DYEAR=2008
DGENRE=Ρεμπέτικη
TTITLE0=Γλυκερία-Ιακωβίδης Αγάθωνας - Με παράσυρε το ρέμα [Βασ. Τσιτσάνης]
TTITLE1=Καζαντζίδης Στέλιος - Γιατί με ξύπνησες πρωΐ [Βασ. Τσιτσάνης]
TTITLE2=Μπέλλου Σωτηρία - Το μινόρε της αυγής [Σπ. Περιστέρης-Μίνως Μάτσας]
TTITLE3=Αγγελόπουλος Μανώλης - Είναι ευτυχής ο άνθρωπος [Παν. Τούντας]
TTITLE4=Τσαλιγοπούλου Ελένη - Ο κοκαϊνοπότης [Παν. Τούντας]
TTITLE5=Τσαουσάκης Πρόδρομος - Τρίτη, Πέμπτη μακαρόνια [παραδοσιακό]
TTITLE6=Πάνου Πόλυ - Απ' της Ζέας το λιμάνι [Γ. Παπαϊωάννου-Χαρ. Βασιλειάδης]
TTITLE7=Ζαγοραίος Σπύρος - Ε ντε λα μαγκέν [Σπ. Περιστέρης-Σπ. Ζαγοραίος]
TTITLE8=Γλυκερία-Ιακωβίδης Αγάθωνας-χορωδία - Τικ τικ τακ [παραδ., διασκ. Στ. 
TTITLE8=Φωτιάδης]
TTITLE9=Μαριώ - Τι σήμερα, τι αύριο, τι τώρα [Β. Τσιτσάνης-Γερ. Τσάκαλος]
TTITLE10=Νικολαΐδης Απόστολος - Όλοι οι ρεμπέτες του ντουνιά [Μ. Βαμβακάρης]
TTITLE11=Νταράλας Λουκάς - Το πλουσιόπαιδο [Μ. Χιώτης-Χρ. Κολοκοτρώνης]
TTITLE12=Κανά Μελίνα - Αράπικο λουλούδι [Βασ. Τσιτσάνης]
TTITLE13=Πουλόπουλος Γιάννης - Η αχάριστη [Βασ. Τσιτσάνης]
TTITLE14=Τσέρτος Μπάμπης - Μπαρμπα Γιαννακάκης [παραδοσιακό]
TTITLE15=Λαμπράκη Χαρούλα-Παιδιά από την Πάτρα - Ο λουλάς [Γ. Μητσάκης]
TTITLE16=Γκολές Μπάμπης - Πέντε Έλληνες στον Άδη [Γ. Παπαϊωάννου-Κ. Μάνεσης]
TTITLE17=Οπισθοδρομική κομπανία - Ήσουνα ξυπόλητη [παραδοσιακό]
TTITLE18=Εσκενάζυ Ρόζα - Χαρικλάκι [Παν. Τούντας]
TTITLE19=Ιωαννίδης Γιαννάκης - Τούτ' οι μπάτσοι πού 'ρθαν τώρα [παραδοσιακό]
EXTD=
EXTT0=
EXTT1=
EXTT2=
EXTT3=
EXTT4=
EXTT5=
EXTT6=
EXTT7=
EXTT8=
EXTT9=
EXTT10=
EXTT11=
EXTT12=
EXTT13=
EXTT14=
EXTT15=
EXTT16=
EXTT17=
EXTT18=
EXTT19=
PLAYORDER=
